<svg width="18" height="16" viewBox="0 0 18 16" fill="none" xmlns="http://www.w3.org/2000/svg">
<path fill-rule="evenodd" clip-rule="evenodd" d="M13.8074 4.98483H17.3333C17.3333 2.15383 15.637 0.5 12.763 0.5H5.23703C2.36295 0.5 0.666656 2.15383 0.666656 4.94872V11.0513C0.666656 13.8462 2.36295 15.5 5.23703 15.5H12.763C15.637 15.5 17.3333 13.8462 17.3333 11.0513V10.7913H13.8074C12.171 10.7913 10.8444 9.49793 10.8444 7.9025C10.8444 6.30707 12.171 5.01372 13.8074 5.01372V4.98483ZM13.8074 6.22701H16.7111C17.0547 6.22701 17.3333 6.49861 17.3333 6.83365V8.94246C17.3293 9.27588 17.0531 9.54521 16.7111 9.54911H13.8741C13.0456 9.55998 12.3212 9.00698 12.1333 8.22027C12.0392 7.73191 12.1713 7.22797 12.4942 6.84351C12.8171 6.45906 13.2978 6.2334 13.8074 6.22701ZM13.9333 8.44415H14.2074C14.5592 8.44415 14.8444 8.16608 14.8444 7.82306C14.8444 7.48004 14.5592 7.20197 14.2074 7.20197H13.9333C13.7651 7.20004 13.603 7.26387 13.4833 7.3792C13.3636 7.49453 13.2963 7.65177 13.2963 7.81584C13.2963 8.16005 13.5803 8.44019 13.9333 8.44415ZM4.6148 4.98483H9.31851C9.67033 4.98483 9.95555 4.70676 9.95555 4.36375C9.95555 4.02073 9.67033 3.74266 9.31851 3.74266H4.6148C4.26585 3.74263 3.98183 4.01633 3.97777 4.35652C3.97774 4.70073 4.26178 4.98088 4.6148 4.98483Z" fill="#193B68"/>
</svg>
