<svg width="36" height="36" viewBox="0 0 36 36" fill="none" xmlns="http://www.w3.org/2000/svg">
<rect width="36" height="36" rx="8" fill="#F3F5F6"/>
<path d="M9.66669 25.5H26.3334" stroke="#193B68" stroke-width="1.3" stroke-linecap="round" stroke-linejoin="round"/>
<path d="M15.5 17.1665H12.1666C11.7064 17.1665 11.3333 17.5396 11.3333 17.9998V24.6665C11.3333 25.1267 11.7064 25.4998 12.1666 25.4998H15.5C15.9602 25.4998 16.3333 25.1267 16.3333 24.6665V17.9998C16.3333 17.5396 15.9602 17.1665 15.5 17.1665Z" stroke="#193B68" stroke-width="1.3" stroke-linejoin="round"/>
<path d="M23.8333 9.6665H17.1666C16.7064 9.6665 16.3333 10.0396 16.3333 10.4998V24.6665C16.3333 25.1267 16.7064 25.4998 17.1666 25.4998H23.8333C24.2936 25.4998 24.6666 25.1267 24.6666 24.6665V10.4998C24.6666 10.0396 24.2936 9.6665 23.8333 9.6665Z" stroke="#193B68" stroke-width="1.3" stroke-linejoin="round"/>
<path d="M19.6667 21.3369H21.3334" stroke="#193B68" stroke-width="1.3" stroke-linecap="round" stroke-linejoin="round"/>
<path d="M13 21.3369H14.6667" stroke="#193B68" stroke-width="1.3" stroke-linecap="round" stroke-linejoin="round"/>
<path d="M19.6667 17.5869H21.3334" stroke="#193B68" stroke-width="1.3" stroke-linecap="round" stroke-linejoin="round"/>
<path d="M19.6667 13.8369H21.3334" stroke="#193B68" stroke-width="1.3" stroke-linecap="round" stroke-linejoin="round"/>
</svg>
