<svg width="34" height="32" viewBox="0 0 34 32" fill="none" xmlns="http://www.w3.org/2000/svg">
<g opacity="0.5">
<path fill-rule="evenodd" clip-rule="evenodd" d="M11.9697 10.9653C12.2626 10.6724 12.7374 10.6724 13.0303 10.9653L17 14.9349L20.9697 10.9653C21.2626 10.6724 21.7374 10.6724 22.0303 10.9653C22.3232 11.2582 22.3232 11.733 22.0303 12.0259L18.0607 15.9956L22.0303 19.9653C22.3232 20.2582 22.3232 20.733 22.0303 21.0259C21.7374 21.3188 21.2626 21.3188 20.9697 21.0259L17 17.0563L13.0303 21.0259C12.7374 21.3188 12.2626 21.3188 11.9697 21.0259C11.6768 20.733 11.6768 20.2582 11.9697 19.9653L15.9393 15.9956L11.9697 12.0259C11.6768 11.733 11.6768 11.2582 11.9697 10.9653Z" fill="#231815"/>
<rect x="0.75" y="1.12598" width="32.5" height="29.7393" rx="14.8697" stroke="#A3A3A3" stroke-width="1.5"/>
</g>
</svg>
