<svg width="20" height="20" viewBox="0 0 20 20" fill="none" xmlns="http://www.w3.org/2000/svg">
<path fill-rule="evenodd" clip-rule="evenodd" d="M7.74454 2.74418C7.9008 2.58788 8.11273 2.50005 8.33374 2.5H11.6672C12.3303 2.5 12.9662 2.7634 13.4351 3.23227C13.904 3.70113 14.1674 4.33705 14.1674 5.00012V12.5005C14.1674 13.1636 13.904 13.7995 13.4351 14.2683C12.9662 14.7372 12.3303 15.0006 11.6672 15.0006H5.83362C5.17054 15.0006 4.53463 14.7372 4.06576 14.2683C3.5969 13.7995 3.3335 13.1636 3.3335 12.5005V7.50024C3.33354 7.27924 3.42138 7.0673 3.57767 6.91105L7.74454 2.74418ZM11.6672 4.16675H9.16711V7.50024C9.16711 7.72127 9.07931 7.93324 8.92302 8.08953C8.76674 8.24582 8.55476 8.33362 8.33374 8.33362H5.00024V12.5005C5.00024 12.7215 5.08805 12.9335 5.24433 13.0898C5.40062 13.2461 5.61259 13.3339 5.83362 13.3339H11.6672C11.8883 13.3339 12.1002 13.2461 12.2565 13.0898C12.4128 12.9335 12.5006 12.7215 12.5006 12.5005V5.00012C12.5006 4.7791 12.4128 4.56713 12.2565 4.41084C12.1002 4.25455 11.8883 4.16675 11.6672 4.16675ZM6.17863 6.66687H7.50037V5.34514L6.17863 6.66687ZM15.8341 4.16675C16.0551 4.16675 16.2671 4.25455 16.4234 4.41084C16.5797 4.56713 16.6675 4.7791 16.6675 5.00012V15.0006C16.6675 15.6637 16.4041 16.2996 15.9352 16.7685C15.4663 17.2373 14.8304 17.5007 14.1674 17.5007H5.83362C5.61259 17.5007 5.40062 17.4129 5.24433 17.2566C5.08805 17.1004 5.00024 16.8884 5.00024 16.6674C5.00024 16.4463 5.08805 16.2344 5.24433 16.0781C5.40062 15.9218 5.61259 15.834 5.83362 15.834H14.1674C14.3884 15.834 14.6004 15.7462 14.7566 15.5899C14.9129 15.4336 15.0007 15.2216 15.0007 15.0006V5.00012C15.0007 4.7791 15.0885 4.56713 15.2448 4.41084C15.4011 4.25455 15.6131 4.16675 15.8341 4.16675Z" fill="#1E87F0"/>
</svg>
