<svg width="18" height="19" viewBox="0 0 18 19" fill="none" xmlns="http://www.w3.org/2000/svg">
<path d="M15 7.205C14.9922 7.1361 14.9771 7.06822 14.955 7.0025V6.935C14.9189 6.85788 14.8708 6.787 14.8125 6.725V6.725L10.3125 2.225C10.2505 2.16666 10.1796 2.11856 10.1025 2.0825H10.0275C9.95457 2.0435 9.8762 2.01569 9.795 2H5.25C4.65326 2 4.08097 2.23705 3.65901 2.65901C3.23705 3.08097 3 3.65326 3 4.25V14.75C3 15.3467 3.23705 15.919 3.65901 16.341C4.08097 16.7629 4.65326 17 5.25 17H12.75C13.3467 17 13.919 16.7629 14.341 16.341C14.7629 15.919 15 15.3467 15 14.75V7.25C15 7.25 15 7.25 15 7.205ZM10.5 4.5575L12.4425 6.5H11.25C11.0511 6.5 10.8603 6.42098 10.7197 6.28033C10.579 6.13968 10.5 5.94891 10.5 5.75V4.5575ZM13.5 14.75C13.5 14.9489 13.421 15.1397 13.2803 15.2803C13.1397 15.421 12.9489 15.5 12.75 15.5H5.25C5.05109 15.5 4.86032 15.421 4.71967 15.2803C4.57902 15.1397 4.5 14.9489 4.5 14.75V4.25C4.5 4.05109 4.57902 3.86032 4.71967 3.71967C4.86032 3.57902 5.05109 3.5 5.25 3.5H9V5.75C9 6.34674 9.23705 6.91903 9.65901 7.34099C10.081 7.76295 10.6533 8 11.25 8H13.5V14.75ZM9.9675 11.2175L9.75 11.4425V9.5C9.75 9.30109 9.67098 9.11032 9.53033 8.96967C9.38968 8.82902 9.19891 8.75 9 8.75C8.80109 8.75 8.61032 8.82902 8.46967 8.96967C8.32902 9.11032 8.25 9.30109 8.25 9.5V11.4425L8.0325 11.2175C7.89127 11.0763 7.69973 10.9969 7.5 10.9969C7.30027 10.9969 7.10873 11.0763 6.9675 11.2175C6.82627 11.3587 6.74693 11.5503 6.74693 11.75C6.74693 11.9497 6.82627 12.1413 6.9675 12.2825L8.4675 13.7825C8.53883 13.8508 8.62294 13.9043 8.715 13.94C8.80478 13.9797 8.90185 14.0002 9 14.0002C9.09815 14.0002 9.19522 13.9797 9.285 13.94C9.37706 13.9043 9.46117 13.8508 9.5325 13.7825L11.0325 12.2825C11.1737 12.1413 11.2531 11.9497 11.2531 11.75C11.2531 11.5503 11.1737 11.3587 11.0325 11.2175C10.8913 11.0763 10.6997 10.9969 10.5 10.9969C10.3003 10.9969 10.1087 11.0763 9.9675 11.2175V11.2175Z" fill="#1E87F0"/>
</svg>
