<svg width="16" height="18" viewBox="0 0 16 18" fill="none" xmlns="http://www.w3.org/2000/svg">
<path d="M5.61233 16.3111V13.763C5.61233 13.1126 6.14349 12.5853 6.79871 12.5853H9.19385C9.5085 12.5853 9.81026 12.7093 10.0328 12.9302C10.2552 13.1511 10.3802 13.4507 10.3802 13.763V16.3111C10.3782 16.5815 10.4851 16.8416 10.677 17.0335C10.8689 17.2254 11.1301 17.3333 11.4025 17.3333H13.0365C13.7997 17.3353 14.5323 17.0357 15.0727 16.5007C15.613 15.9656 15.9167 15.2391 15.9167 14.4815V7.22238C15.9167 6.61038 15.6434 6.02987 15.1705 5.63722L9.6117 1.22989C8.64473 0.457135 7.25927 0.482085 6.32117 1.28915L0.889187 5.63722C0.393961 6.01829 0.0979704 6.60053 0.0833435 7.22238V14.4741C0.0833435 16.0532 1.37283 17.3333 2.96349 17.3333H4.56025C5.12603 17.3333 5.58584 16.8802 5.58994 16.3185L5.61233 16.3111Z" fill="#193B68"/>
</svg>
