<svg width="36" height="36" viewBox="0 0 36 36" fill="none" xmlns="http://www.w3.org/2000/svg">
<rect width="36" height="36" rx="8" fill="#F3F5F6"/>
<path d="M18.0917 20.8252L14.8583 24.0586C14.4669 24.4364 13.9441 24.6475 13.4 24.6475C12.856 24.6475 12.3331 24.4364 11.9417 24.0586C11.7497 23.8673 11.5973 23.6401 11.4934 23.3898C11.3894 23.1396 11.3359 22.8712 11.3359 22.6002C11.3359 22.3293 11.3894 22.0609 11.4934 21.8107C11.5973 21.5604 11.7497 21.3331 11.9417 21.1419L15.175 17.9086C15.3319 17.7517 15.4201 17.5388 15.4201 17.3169C15.4201 17.095 15.3319 16.8822 15.175 16.7252C15.0181 16.5683 14.8053 16.4802 14.5833 16.4802C14.3614 16.4802 14.1486 16.5683 13.9917 16.7252L10.7583 19.9669C10.107 20.6759 9.75469 21.6091 9.77507 22.5717C9.79545 23.5343 10.1869 24.4518 10.8677 25.1325C11.5485 25.8133 12.466 26.2048 13.4285 26.2252C14.3911 26.2456 15.3243 25.8933 16.0333 25.2419L19.275 22.0086C19.4319 21.8517 19.5201 21.6388 19.5201 21.4169C19.5201 21.195 19.4319 20.9822 19.275 20.8252C19.1181 20.6683 18.9053 20.5802 18.6833 20.5802C18.4614 20.5802 18.2486 20.6683 18.0917 20.8252ZM25.2417 10.7586C24.5407 10.0619 23.5925 9.6709 22.6042 9.6709C21.6159 9.6709 20.6677 10.0619 19.9667 10.7586L16.725 13.9919C16.6473 14.0696 16.5857 14.1618 16.5436 14.2634C16.5016 14.3649 16.4799 14.4737 16.4799 14.5836C16.4799 14.6935 16.5016 14.8023 16.5436 14.9038C16.5857 15.0053 16.6473 15.0975 16.725 15.1752C16.8027 15.2529 16.8949 15.3146 16.9965 15.3566C17.098 15.3987 17.2068 15.4203 17.3167 15.4203C17.4266 15.4203 17.5354 15.3987 17.6369 15.3566C17.7384 15.3146 17.8306 15.2529 17.9083 15.1752L21.1417 11.9419C21.5331 11.5641 22.056 11.353 22.6 11.353C23.1441 11.353 23.6669 11.5641 24.0583 11.9419C24.2503 12.1331 24.4027 12.3604 24.5066 12.6107C24.6106 12.8609 24.6641 13.1293 24.6641 13.4002C24.6641 13.6712 24.6106 13.9396 24.5066 14.1898C24.4027 14.4401 24.2503 14.6673 24.0583 14.8586L20.825 18.0919C20.7469 18.1694 20.6849 18.2615 20.6426 18.3631C20.6003 18.4646 20.5785 18.5736 20.5785 18.6836C20.5785 18.7936 20.6003 18.9025 20.6426 19.0041C20.6849 19.1056 20.7469 19.1978 20.825 19.2752C20.9025 19.3533 20.9946 19.4153 21.0962 19.4577C21.1977 19.5 21.3067 19.5217 21.4167 19.5217C21.5267 19.5217 21.6356 19.5 21.7372 19.4577C21.8387 19.4153 21.9309 19.3533 22.0083 19.2752L25.2417 16.0336C25.9383 15.3326 26.3293 14.3844 26.3293 13.3961C26.3293 12.4078 25.9383 11.4596 25.2417 10.7586ZM15.3583 20.6419C15.4362 20.7191 15.5286 20.7802 15.6301 20.8217C15.7316 20.8632 15.8403 20.8842 15.95 20.8836C16.0597 20.8842 16.1684 20.8632 16.2699 20.8217C16.3715 20.7802 16.4638 20.7191 16.5417 20.6419L20.6417 16.5419C20.7986 16.385 20.8867 16.1722 20.8867 15.9502C20.8867 15.7283 20.7986 15.5155 20.6417 15.3586C20.4848 15.2017 20.2719 15.1135 20.05 15.1135C19.8281 15.1135 19.6153 15.2017 19.4583 15.3586L15.3583 19.4586C15.2802 19.536 15.2182 19.6282 15.1759 19.7298C15.1336 19.8313 15.1118 19.9402 15.1118 20.0502C15.1118 20.1603 15.1336 20.2692 15.1759 20.3707C15.2182 20.4723 15.2802 20.5644 15.3583 20.6419Z" fill="#193B68"/>
</svg>
