<svg width="36" height="36" viewBox="0 0 36 36" fill="none" xmlns="http://www.w3.org/2000/svg">
<rect width="36" height="36" rx="8" fill="#F3F5F6"/>
<path d="M24.6914 13.6465C24.3237 12.7986 23.7935 12.0309 23.1309 11.3867C22.466 10.7367 21.6822 10.2208 20.8223 9.86719C19.9277 9.49609 18.9785 9.30859 18 9.30859C17.0215 9.30859 16.0723 9.49609 15.1777 9.86523C14.3125 10.2227 13.5371 10.7344 12.8691 11.3848C12.2069 12.0293 11.6768 12.7969 11.3086 13.6445C10.9277 14.5234 10.7344 15.457 10.7344 16.418C10.7344 17.7969 11.0645 19.1699 11.7129 20.4941C12.2344 21.5586 12.9629 22.5957 13.8809 23.582C15.4492 25.2656 17.0938 26.2949 17.5605 26.5703C17.693 26.6486 17.8442 26.6897 17.998 26.6895C18.1504 26.6895 18.3008 26.6504 18.4355 26.5703C18.9023 26.2949 20.5469 25.2656 22.1152 23.582C23.0332 22.5977 23.7617 21.5586 24.2832 20.4941C24.9355 19.1719 25.2656 17.8008 25.2656 16.4199C25.2656 15.459 25.0723 14.5254 24.6914 13.6465ZM18 25.1914C16.7129 24.373 12.1406 21.1328 12.1406 16.4199C12.1406 14.8984 12.748 13.4688 13.8516 12.3906C14.959 11.3105 16.4316 10.7148 18 10.7148C19.5684 10.7148 21.041 11.3105 22.1484 12.3926C23.252 13.4688 23.8594 14.8984 23.8594 16.4199C23.8594 21.1328 19.2871 24.373 18 25.1914ZM18 13.1367C16.1016 13.1367 14.5625 14.6758 14.5625 16.5742C14.5625 18.4727 16.1016 20.0117 18 20.0117C19.8984 20.0117 21.4375 18.4727 21.4375 16.5742C21.4375 14.6758 19.8984 13.1367 18 13.1367ZM19.5469 18.1211C19.344 18.3246 19.1029 18.4859 18.8374 18.5959C18.5719 18.7058 18.2873 18.7622 18 18.7617C17.416 18.7617 16.8672 18.5332 16.4531 18.1211C16.2497 17.9182 16.0883 17.6771 15.9784 17.4116C15.8684 17.1461 15.8121 16.8616 15.8125 16.5742C15.8125 15.9902 16.041 15.4414 16.4531 15.0273C16.8672 14.6133 17.416 14.3867 18 14.3867C18.584 14.3867 19.1328 14.6133 19.5469 15.0273C19.9609 15.4414 20.1875 15.9902 20.1875 16.5742C20.1875 17.1582 19.9609 17.707 19.5469 18.1211Z" fill="#193B68" stroke="#193B68" stroke-width="0.2"/>
</svg>
