<svg width="156" height="30" viewBox="0 0 156 30" fill="none" xmlns="http://www.w3.org/2000/svg">
  <path d="M38.2816 5.3666C38.3713 5.34926 38.4619 5.33777 38.5531 5.33219C39.681 5.33219 40.8127 5.33219 41.9406 5.33219C42.1379 5.33638 42.33 5.39601 42.495 5.50425C43.1637 6.00944 43.7328 6.63431 44.1735 7.34713C45.385 9.21543 46.5016 11.1436 47.519 13.1243C48.5284 14.9672 49.5569 16.8024 50.5777 18.6415C50.6173 18.716 50.6752 18.7791 50.7459 18.825V5.58454L54.7223 5.33601V24.4072H54.47C53.3803 24.4072 52.2868 24.4072 51.1971 24.4072C50.8332 24.4148 50.4761 24.3078 50.1763 24.1013C49.4454 23.5903 48.81 22.9549 48.299 22.224C47.1215 20.6022 46.0732 18.8904 45.1638 17.1045C44.2385 15.3725 43.3247 13.6366 42.4033 11.9008C42.365 11.8282 42.323 11.7594 42.2542 11.6446V24.4072H38.2816V5.3666Z" fill="#193B68"/>
  <path d="M91.7711 24.6137C90.5799 24.6021 89.4055 24.3307 88.33 23.8184C87.6116 23.4595 86.9714 22.9619 86.4464 22.3542C85.9214 21.7465 85.522 21.0408 85.2713 20.2779C84.5665 18.369 84.6034 16.2653 85.3745 14.3822C86.2883 12.1379 88.0088 10.8723 90.3755 10.4823C91.7678 10.2247 93.2035 10.3421 94.5354 10.8226C95.4155 11.1322 96.212 11.6413 96.8627 12.3098C97.5133 12.9784 98.0006 13.7885 98.2862 14.6766C98.7115 15.7871 98.8795 16.9795 98.7775 18.1643C98.6756 19.3491 98.3062 20.4953 97.6974 21.5167C97.2345 22.3039 96.5996 22.9763 95.8401 23.4835C95.0807 23.9906 94.2164 24.3195 93.3119 24.4454C92.7919 24.5334 92.2796 24.5601 91.7711 24.6137ZM88.957 17.3951C88.9334 18.122 89.0911 18.8434 89.4158 19.4941C89.6254 19.9221 89.9524 20.2816 90.3586 20.5308C90.7648 20.7799 91.2334 20.9083 91.7099 20.9011C92.1696 20.9369 92.6297 20.8372 93.0333 20.6143C93.437 20.3914 93.7664 20.0552 93.981 19.6471C94.3637 18.9925 94.5712 18.2502 94.5832 17.492C94.5953 16.7339 94.4116 15.9854 94.0498 15.319C93.1131 13.5067 90.5285 13.6749 89.5994 15.0398C89.1547 15.7431 88.931 16.5634 88.957 17.3951V17.3951Z" fill="#193B68"/>
  <path d="M64.6637 7.66068C65.9637 7.49245 67.3401 7.16363 68.6057 6.98011V10.5129H72.0161C71.932 11.6026 71.8517 12.6579 71.7676 13.7437H68.6324C68.6324 13.8546 68.6324 13.9273 68.6324 14.0037V18.3089C68.6105 18.6459 68.6583 18.9838 68.7728 19.3015C68.8872 19.6192 69.0659 19.91 69.2977 20.1556C69.503 20.3562 69.7465 20.5135 70.0139 20.6179C70.2813 20.7224 70.5669 20.7719 70.8538 20.7635C71.3738 20.7635 71.89 20.7176 72.4252 20.6947V20.9126C72.4252 21.8723 72.4252 22.8243 72.4252 23.7917C72.4322 23.8387 72.4297 23.8867 72.4178 23.9327C72.4059 23.9788 72.3849 24.022 72.3561 24.0598C72.3272 24.0976 72.291 24.1292 72.2497 24.1527C72.2084 24.1763 72.1628 24.1913 72.1155 24.197C71.5261 24.3603 70.9141 24.4275 70.3033 24.3958C69.0809 24.3578 67.8917 23.9892 66.8622 23.329C66.192 22.924 65.6376 22.3531 65.2525 21.6712C64.8674 20.9894 64.6646 20.2198 64.6637 19.4368C64.6217 15.5446 64.6637 11.6523 64.6637 7.76009V7.66068Z" fill="#193B68"/>
  <path d="M78.725 24.3996H74.7793C74.7793 24.3193 74.7793 24.2466 74.7793 24.1702C74.7793 21.4173 74.7793 18.6606 74.7793 15.9078C74.7504 14.5957 75.2001 13.318 76.0444 12.3132C76.8887 11.3085 78.0699 10.6454 79.3674 10.4479C80.2552 10.3242 81.1559 10.3242 82.0438 10.4479C82.831 10.5048 83.6048 10.6827 84.3378 10.9756C84.4831 11.0367 84.6246 11.117 84.7851 11.1935C84.4563 12.3456 84.1313 13.4773 83.8102 14.5887C83.3077 14.4782 82.7997 14.394 82.2884 14.3363C81.7066 14.2695 81.1191 14.2695 80.5373 14.3363C79.6006 14.4625 78.9812 15.2004 78.813 16.248C78.7581 16.5997 78.7299 16.955 78.7288 17.311C78.7288 19.5782 78.7288 21.8455 78.7288 24.1128L78.725 24.3996Z" fill="#193B68"/>
  <path d="M61.6481 10.5473V24.3881H57.7215V10.5473H61.6481Z" fill="#193B68"/>
  <path d="M59.6936 5.21749C60.1204 5.21073 60.5395 5.33169 60.897 5.56485C61.2546 5.79801 61.5343 6.13273 61.7002 6.52601C61.8661 6.9193 61.9107 7.35321 61.8282 7.77203C61.7458 8.19084 61.54 8.57545 61.2373 8.87646C60.9347 9.17747 60.5489 9.38114 60.1297 9.46133C59.7104 9.54152 59.2768 9.49456 58.8844 9.32648C58.492 9.1584 58.1588 8.87687 57.9276 8.51805C57.6964 8.15923 57.5778 7.73949 57.5869 7.31272C57.5948 6.75753 57.8197 6.2275 58.2134 5.83595C58.6071 5.4444 59.1383 5.22243 59.6936 5.21749Z" fill="#193B68"/>
  <path d="M116.838 14.5504L113.122 14.7951V15.101C113.122 16.4621 113.122 17.8271 113.122 19.1882C113.127 19.2562 113.115 19.3244 113.087 19.3866C113.059 19.4488 113.016 19.5028 112.962 19.5438C112.419 19.9968 111.781 20.321 111.096 20.492C109.023 21.0005 106.856 20.3314 105.968 17.8156C105.321 15.9621 105.299 13.9474 105.907 12.0805C106.051 11.5352 106.308 11.0264 106.661 10.5875C107.015 10.1487 107.458 9.78966 107.96 9.53409C108.787 9.15539 109.705 9.02217 110.605 9.15028C111.505 9.27839 112.35 9.66244 113.038 10.2567C113.29 10.4861 113.508 10.7423 113.757 10.9985L116.751 8.51324C116.35 7.95314 115.871 7.45353 115.328 7.02975C114.368 6.27606 113.259 5.73518 112.074 5.44304V3.9519H109.949V5.20981C109.422 5.21324 108.897 5.25798 108.377 5.34363H108.316V3.9519H106.194V5.99361C104.531 6.75883 103.181 8.07219 102.371 9.71379C100.734 12.8528 100.677 16.0989 102.011 19.3526C102.746 21.2445 104.169 22.7882 105.995 23.6731L106.175 23.7534V25.7836H108.297V24.4263C108.835 24.5243 109.382 24.5691 109.93 24.5601V25.7836H112.074V24.2772C113.931 23.8757 115.579 22.8147 116.712 21.2911C116.792 21.1791 116.837 21.0462 116.842 20.9087C116.842 18.8823 116.842 16.8547 116.842 14.8257L116.838 14.5504Z" fill="#193B68"/>
  <path d="M154.208 13.8278C153.889 13.1114 153.428 12.4667 152.854 11.9326C152.28 11.3984 151.604 10.9858 150.866 10.7194C149.709 10.3308 148.471 10.2478 147.272 10.4785C144.909 10.8609 143.2 12.1302 142.302 14.3669C141.565 16.1615 141.494 18.1598 142.099 20.0026C142.391 21.0812 142.974 22.0592 143.782 22.8303C144.591 23.6014 145.596 24.1362 146.687 24.3766C147.795 24.6464 148.943 24.7112 150.075 24.5678C151.195 24.474 152.282 24.1374 153.26 23.5814C153.363 23.5202 153.462 23.4514 153.566 23.3864C152.95 22.4573 152.35 21.5588 151.757 20.6526C151.673 20.5265 151.6 20.5379 151.489 20.5915C150.727 20.9408 149.896 21.1109 149.058 21.0885C148.403 21.1265 147.753 20.9448 147.213 20.5722C146.673 20.1996 146.273 19.6574 146.075 19.0315C146.049 18.955 146.03 18.8786 146.003 18.7792H155.129C155.267 17.0762 154.949 15.3671 154.208 13.8278V13.8278ZM145.942 16.0187C146.053 15.4384 146.364 14.9152 146.819 14.539C147.275 14.1627 147.847 13.9569 148.438 13.9569C149.029 13.9569 149.602 14.1627 150.057 14.539C150.513 14.9152 150.823 15.4384 150.935 16.0187H145.942Z" fill="#193B68"/>
  <path d="M130.311 15.0475C130.113 13.7839 129.483 12.6282 128.527 11.778C127.572 10.9279 126.351 10.4361 125.073 10.3867C123.835 10.3111 122.594 10.4548 121.406 10.8111C120.974 10.9373 120.557 11.1208 120.121 11.2814C120.542 12.2028 120.943 13.0746 121.333 13.9578C121.402 14.1145 121.49 14.0572 121.593 14.0266C122.573 13.7301 123.595 13.6008 124.618 13.6443C125.818 13.6901 126.43 14.2484 126.529 15.3571H126.208C124.522 15.1827 122.82 15.4598 121.276 16.1601C120.777 16.3658 120.325 16.6709 119.948 17.0567C119.571 17.4426 119.276 17.9011 119.081 18.4044C118.7 19.461 118.737 20.6232 119.183 21.6541C119.629 22.685 120.451 23.5068 121.483 23.9522C123.222 24.7169 125.054 24.7589 126.904 24.5372C128.027 24.3659 129.121 24.035 130.15 23.5546C130.219 23.5358 130.279 23.4932 130.319 23.4343C130.359 23.3754 130.376 23.3041 130.368 23.2334C130.368 20.8132 130.368 18.3891 130.368 15.9689C130.373 15.6607 130.354 15.3526 130.311 15.0475V15.0475ZM126.602 21.249C125.675 21.3808 124.731 21.3328 123.822 21.1076C123.564 21.0289 123.32 20.9088 123.1 20.752C122.929 20.6395 122.79 20.4847 122.697 20.3026C122.604 20.1206 122.559 19.9175 122.568 19.7131C122.576 19.5087 122.637 19.31 122.745 19.1363C122.853 18.9626 123.004 18.8198 123.184 18.7218C123.557 18.5093 123.972 18.3789 124.4 18.3394C125.126 18.2744 125.86 18.3394 126.602 18.3394V21.249Z" fill="#193B68"/>
  <path d="M140.287 20.9126V20.6947C139.748 20.7176 139.232 20.7597 138.716 20.7635C138.429 20.7719 138.143 20.7224 137.876 20.6179C137.608 20.5135 137.365 20.3562 137.159 20.1556C136.928 19.91 136.749 19.6192 136.635 19.3015C136.52 18.9838 136.472 18.6459 136.494 18.3089C136.494 16.8789 136.494 15.4477 136.494 14.0152C136.494 13.9387 136.494 13.8661 136.494 13.7552H139.633C139.717 12.6694 139.798 11.6141 139.882 10.5244H136.471V6.98011C135.194 7.16363 133.829 7.49245 132.526 7.66068V7.76009C132.526 11.6523 132.499 15.5446 132.526 19.4368C132.522 20.2168 132.719 20.9846 133.098 21.6663C133.477 22.348 134.025 22.9207 134.69 23.329C135.719 23.9892 136.908 24.3578 138.131 24.3958C138.742 24.4275 139.353 24.3603 139.943 24.197C139.99 24.1913 140.036 24.1763 140.077 24.1527C140.118 24.1292 140.155 24.0976 140.183 24.0598C140.212 24.022 140.233 23.9788 140.245 23.9327C140.257 23.8867 140.26 23.8387 140.253 23.7917C140.276 22.832 140.287 21.8723 140.287 20.9126Z" fill="#193B68"/>
  <circle cx="15.2012" cy="15" r="15" fill="#193B68"/>
  <mask id="mask0_305_927" style="mask-type:alpha" maskUnits="userSpaceOnUse" x="0" y="0" width="31" height="30">
  <circle cx="15.2012" cy="15" r="15" fill="#193B68"/>
  </mask>
  <g mask="url(#mask0_305_927)">
  <path d="M12.8289 17.8172L16.1114 21.363C16.4142 21.6892 16.7889 21.9512 17.21 22.1315C17.6312 22.3118 18.0891 22.4061 18.5529 22.4081C18.6623 22.4081 18.7717 22.4081 18.8812 22.3936C19.5025 22.3374 20.0931 22.1156 20.5818 21.7549C20.7339 21.6427 20.8746 21.5179 21.0023 21.3819L21.5962 20.7534L21.9855 20.3398L30.3042 11.5368C29.7029 9.4279 30.1015 8.95276 28.6022 7.27322L20.8043 15.0394C20.5957 15.26 20.3385 15.4365 20.0502 15.557C19.7619 15.6775 19.4491 15.7391 19.1329 15.7377C18.8167 15.7364 18.5045 15.672 18.2174 15.549C17.9303 15.4261 17.675 15.2473 17.4686 15.0249L13.2842 10.5094C12.9346 10.134 12.4898 9.84516 11.99 9.66903C11.398 9.45966 10.753 9.41599 10.1346 9.54342C9.51618 9.67085 8.95156 9.9638 8.51056 10.386C8.32977 10.5614 8.17233 10.7564 8.04163 10.9666L7.91502 11.1698L0.201172 23.436C1.15641 25.466 2.04652 25.2805 3.83797 26.7435L9.24783 18.1234C9.42499 17.8412 9.6722 17.6023 9.96887 17.4268C10.2655 17.2512 10.6031 17.1439 10.9534 17.114C11.3037 17.084 11.6567 17.1322 11.9829 17.2545C12.3091 17.3768 12.5992 17.5697 12.8289 17.8172Z" fill="url(#paint0_linear_305_927)"/>
  <path d="M13.1599 16.8801L16.3606 20.426C16.6559 20.7522 17.0212 21.0142 17.4319 21.1945C17.8426 21.3748 18.2892 21.4691 18.7414 21.471C18.8481 21.471 18.9548 21.471 19.0615 21.4565C19.6673 21.4004 20.2432 21.1786 20.7197 20.8179C20.8681 20.7057 21.0053 20.5808 21.1297 20.4449L21.7089 19.8164L22.0884 19.4027L30.2001 10.5997C29.6137 8.49088 30.0024 8.01573 28.5404 6.33619L20.9367 14.1023C20.7333 14.323 20.4825 14.4995 20.2014 14.62C19.9202 14.7405 19.6152 14.8021 19.3069 14.8007C18.9986 14.7993 18.6942 14.735 18.4143 14.612C18.1343 14.489 17.8853 14.3103 17.6841 14.0878L13.6039 9.57239C13.2629 9.19693 12.8292 8.90813 12.3419 8.732C11.7647 8.52263 11.1357 8.47896 10.5327 8.60639C9.92967 8.73383 9.37912 9.02678 8.94909 9.44902C8.77281 9.6244 8.61929 9.81932 8.49184 10.0296L8.36839 10.2328L0.846619 22.4989C1.77807 24.529 2.64601 24.3434 4.39286 25.8065L9.66801 17.1864C9.84076 16.9042 10.0818 16.6653 10.3711 16.4897C10.6604 16.3141 10.9895 16.2069 11.3311 16.1769C11.6727 16.147 12.0169 16.1952 12.335 16.3175C12.6531 16.4398 12.9359 16.6327 13.1599 16.8801Z" fill="white"/>
  </g>
  <defs>
  <linearGradient id="paint0_linear_305_927" x1="7.16333" y1="26.3465" x2="22.9391" y2="10.3668" gradientUnits="userSpaceOnUse">
  <stop offset="0.397296" stop-color="#FBA734"/>
  <stop offset="1" stop-color="#F26535" stop-opacity="0"/>
  </linearGradient>
  </defs>
</svg>
