<svg width="30" height="30" viewBox="0 0 30 30" fill="none" xmlns="http://www.w3.org/2000/svg">
  <circle cx="15" cy="15" r="15" fill="#193B68"/>
  <mask id="mask0_305_1323" style="mask-type:alpha" maskUnits="userSpaceOnUse" x="0" y="0" width="30" height="30">
  <circle cx="15" cy="15" r="15" fill="#193B68"/>
  </mask>
  <g mask="url(#mask0_305_1323)">
  <path d="M12.6277 17.8172L15.9102 21.363C16.213 21.6892 16.5877 21.9512 17.0089 22.1315C17.43 22.3118 17.888 22.4061 18.3517 22.4081C18.4611 22.4081 18.5706 22.4081 18.68 22.3936C19.3013 22.3374 19.8919 22.1156 20.3806 21.7549C20.5327 21.6427 20.6735 21.5179 20.8011 21.3819L21.3951 20.7534L21.7843 20.3398L30.103 11.5368C29.5017 9.4279 29.9003 8.95276 28.401 7.27322L20.6031 15.0394C20.3945 15.26 20.1374 15.4365 19.849 15.557C19.5607 15.6775 19.2479 15.7391 18.9317 15.7377C18.6155 15.7364 18.3034 15.672 18.0163 15.549C17.7292 15.4261 17.4738 15.2473 17.2675 15.0249L13.0831 10.5094C12.7334 10.134 12.2886 9.84516 11.7888 9.66903C11.1969 9.45966 10.5518 9.41599 9.93341 9.54342C9.31501 9.67085 8.75039 9.9638 8.30939 10.386C8.1286 10.5614 7.97116 10.7564 7.84046 10.9666L7.71385 11.1698L0 23.436C0.955239 25.466 1.84535 25.2805 3.6368 26.7435L9.04666 18.1234C9.22382 17.8412 9.47103 17.6023 9.7677 17.4268C10.0644 17.2512 10.4019 17.1439 10.7522 17.114C11.1026 17.084 11.4555 17.1322 11.7817 17.2545C12.108 17.3768 12.398 17.5697 12.6277 17.8172Z" fill="url(#paint0_linear_305_1323)"/>
  <path d="M12.9587 16.8801L16.1595 20.426C16.4548 20.7522 16.8201 21.0142 17.2308 21.1945C17.6415 21.3748 18.088 21.4691 18.5402 21.471C18.6469 21.471 18.7536 21.471 18.8603 21.4565C19.4661 21.4004 20.042 21.1786 20.5186 20.8179C20.6669 20.7057 20.8041 20.5808 20.9286 20.4449L21.5078 19.8164L21.8873 19.4027L29.9989 10.5997C29.4125 8.49088 29.8012 8.01573 28.3393 6.33619L20.7355 14.1023C20.5321 14.323 20.2814 14.4995 20.0002 14.62C19.7191 14.7405 19.414 14.8021 19.1057 14.8007C18.7974 14.7993 18.493 14.735 18.2131 14.612C17.9331 14.489 17.6841 14.3103 17.4829 14.0878L13.4027 9.57239C13.0618 9.19693 12.6281 8.90813 12.1407 8.732C11.5635 8.52263 10.9345 8.47896 10.3315 8.60639C9.7285 8.73383 9.17795 9.02678 8.74792 9.44902C8.57164 9.6244 8.41812 9.81932 8.29067 10.0296L8.16721 10.2328L0.645447 22.4989C1.5769 24.529 2.44484 24.3435 4.19169 25.8065L9.46683 17.1864C9.63959 16.9042 9.88064 16.6653 10.1699 16.4897C10.4592 16.3141 10.7884 16.2069 11.13 16.1769C11.4716 16.147 11.8157 16.1952 12.1338 16.3175C12.4519 16.4398 12.7347 16.6327 12.9587 16.8801Z" fill="white"/>
  </g>
  <defs>
  <linearGradient id="paint0_linear_305_1323" x1="6.96216" y1="26.3465" x2="22.7379" y2="10.3668" gradientUnits="userSpaceOnUse">
  <stop offset="0.397296" stop-color="#FBA734"/>
  <stop offset="1" stop-color="#F26535" stop-opacity="0"/>
  </linearGradient>
  </defs>
</svg>
