<svg width="30" height="30" viewBox="0 0 30 30" fill="none" xmlns="http://www.w3.org/2000/svg">
<path d="M5.17604 26.3304L5.13538 26.3045L5.17604 26.3304Z" fill="#193B68"/>
<path d="M4.07898 4.71576C4.10044 4.6894 4.12388 4.66472 4.14912 4.64194C4.12388 4.66472 4.10044 4.6894 4.07898 4.71576Z" fill="#193B68"/>
<path d="M23.6606 27.2403C23.5979 27.2882 23.5352 27.3361 23.4689 27.3804C23.5352 27.3361 23.5979 27.2882 23.6606 27.2403Z" fill="#193B68"/>
<path d="M7.52332 28.0036L7.56398 28.0258L7.52701 28.0036H7.52332Z" fill="#193B68"/>
<path d="M19.2034 29.4018L19.0891 29.435L19.2034 29.4018Z" fill="#193B68"/>
<path d="M29.9982 14.7852C29.9625 11.6409 28.9355 8.58816 27.0637 6.06213C25.6114 8.73001 24.3144 11.4796 23.1791 14.2971C25.4632 14.2072 27.7502 14.3709 29.9982 14.7852Z" fill="#193B68"/>
<path d="M7.16377 21.9118C5.92637 22.6458 4.65718 23.4923 3.3562 24.4513C3.91218 25.1294 4.52584 25.7581 5.19029 26.3302C5.64881 25.7761 6.75293 23.2366 6.81529 23.0274C6.93267 22.6715 7.05005 22.2935 7.16377 21.9118Z" fill="#193B68"/>
<path d="M12.4717 13.431C12.2369 14.5319 12.0315 15.6622 11.8078 16.7742C14.5628 15.6496 17.4516 14.8861 20.4023 14.5026C21.312 12.4622 24.1622 6.83279 25.479 4.25662C23.701 2.52156 21.5196 1.25624 19.1311 0.574615C16.7426 -0.107006 14.2221 -0.18351 11.7968 0.351994C13.8473 4.19423 13.3337 9.34657 12.4717 13.431Z" fill="#193B68"/>
<path d="M8.19092 17.6439C8.84752 14.3411 9.4601 10.8842 9.35006 7.48969C9.31121 5.48495 8.89946 3.50499 8.13589 1.6511C6.32863 2.58086 4.72917 3.86851 3.43472 5.43582C2.14027 7.00312 1.17785 8.81735 0.605926 10.7683C0.0340061 12.7192 -0.135468 14.7661 0.107802 16.7846C0.351071 18.8031 1.002 20.751 2.02105 22.51C3.88953 21.0152 5.89093 19.6946 8.00017 18.565C8.06987 18.2604 8.12856 17.9669 8.19092 17.6439Z" fill="#193B68"/>
<path d="M22.2364 16.8182C21.5005 18.8789 20.9853 21.012 20.6995 23.1816C20.373 26.0733 20.7728 27.7724 21.1507 28.6862C23.3786 27.6833 25.3282 26.1517 26.8304 24.2243C28.3326 22.2968 29.342 20.0317 29.7709 17.6256C27.3285 16.9046 24.776 16.6311 22.2364 16.8182Z" fill="#193B68"/>
<path d="M19.4852 17.1338C16.5859 17.6398 13.7687 18.5373 11.1108 19.8017C11.1087 19.8212 11.1087 19.8409 11.1108 19.8604C10.3409 22.7397 9.13609 25.4845 7.53796 27.9999C9.28973 29.0093 11.2276 29.6535 13.2348 29.8938C15.242 30.1341 17.2771 29.9655 19.2174 29.3981C18.5202 27.8072 18.1593 26.0893 18.1573 24.3522C18.1427 22.3192 18.8213 19.3577 19.4852 17.1338Z" fill="#193B68"/>
<path fill-rule="evenodd" clip-rule="evenodd" d="M29.903 13.3087C29.9562 13.7811 29.9875 14.2601 29.9959 14.7447L29.8956 16.6542C27.6012 16.1402 22.2316 15.2149 18.2866 16.0373C13.3554 17.0654 7.60231 19.8411 5.44489 21.3831C4.06474 22.3696 3.03057 22.9836 2.47897 23.2776C2.24311 22.9207 2.02209 22.5531 1.81677 22.1757C4.49309 20.1443 10.7953 16.2021 15.4204 14.6594C17.2203 14.059 19.428 13.5617 21.5886 13.3367C25.1977 12.9609 28.6757 13.1228 29.903 13.3087Z" fill="url(#paint0_linear_973_9106)"/>
<path d="M29.9983 14.7009C27.7514 14.2868 25.4619 14.2073 23.179 14.2971C24.3125 11.4812 25.6071 8.73287 27.0563 6.06579C26.579 5.42217 26.0502 4.81835 25.4753 4.26027C24.1584 6.84011 21.3119 12.4622 20.4059 14.5026C17.4552 14.8861 14.5664 15.6496 11.8113 16.7741C12.0351 15.6732 12.2405 14.5466 12.4753 13.431C13.3336 9.35022 13.8472 4.19788 11.7967 0.351974C10.5221 0.630453 9.28908 1.0733 8.1285 1.66942C8.89207 3.52331 9.30382 5.50327 9.34267 7.508C9.45271 10.9025 8.84013 14.3448 8.18353 17.6622C8.12117 17.9705 8.05514 18.2787 7.99278 18.5833C5.88733 19.7084 3.88851 21.0227 2.021 22.51C2.41465 23.191 2.86109 23.8401 3.35621 24.4513C4.65719 23.4971 5.92638 22.6507 7.16377 21.9118C7.05006 22.2788 6.93268 22.6714 6.79696 23.0458C6.7346 23.2366 5.63048 25.7724 5.17562 26.3485C5.90187 26.9815 6.68814 27.5419 7.52325 28.022C9.11733 25.5048 10.3207 22.7605 11.0924 19.8824C11.0903 19.8629 11.0903 19.8432 11.0924 19.8237C13.7501 18.5581 16.5673 17.6593 19.4668 17.1521C18.8029 19.376 18.1243 22.3375 18.1243 24.3742C18.127 26.1097 18.4866 27.826 19.1807 29.4165C19.8477 29.2181 20.4998 28.9729 21.1322 28.6825C20.7654 27.7724 20.3545 26.0733 20.681 23.1779C20.9668 21.0083 21.482 18.8752 22.218 16.8145C24.7561 16.6267 27.3073 16.899 29.7487 17.6182C29.902 16.7507 29.9978 15.8902 29.9983 15.0093C29.9983 14.9065 30.002 14.8223 29.9983 14.7009Z" fill="white"/>
<defs>
<linearGradient id="paint0_linear_973_9106" x1="17.1552" y1="11.4207" x2="5.49169" y2="24.1318" gradientUnits="userSpaceOnUse">
<stop stop-color="#FBAB34"/>
<stop offset="1" stop-color="#FBA734" stop-opacity="0"/>
</linearGradient>
</defs>
</svg>
