<svg width="150" height="30" viewBox="0 0 150 30" fill="none" xmlns="http://www.w3.org/2000/svg">
<path d="M96.6104 22.9491H93.0673C93.0673 22.8731 93.0673 22.8063 93.0673 22.7395C93.0673 19.0816 93.0673 15.4228 93.0673 11.763C93.0673 11.6111 93.1007 11.5291 93.2528 11.4592C93.9916 11.1379 94.7469 10.856 95.5155 10.6146C97.0209 10.1797 98.6294 10.2687 100.078 10.8668C100.199 10.9234 100.33 10.9553 100.464 10.9605C100.597 10.9657 100.731 10.9442 100.856 10.8972C102.294 10.4015 103.829 10.2516 105.336 10.4597C107.097 10.7635 108.551 11.5838 109.497 13.1514C109.893 13.8255 110.093 14.5967 110.074 15.3783V22.785C110.074 22.8336 110.074 22.8822 110.074 22.943H106.531V22.706C106.531 20.5946 106.531 18.4862 106.531 16.3747C106.525 15.9808 106.458 15.5902 106.331 15.2173C106.223 14.9114 106.042 14.6365 105.803 14.4167C105.565 14.1969 105.276 14.0389 104.962 13.9565C104.317 13.7914 103.64 13.7967 102.997 13.9717C103.079 14.2967 103.18 14.6188 103.234 14.9499C103.302 15.318 103.34 15.6908 103.35 16.0649C103.35 18.313 103.35 20.5642 103.35 22.8124V22.9521H99.7917V22.6817C99.7917 20.6017 99.7917 18.5196 99.7917 16.4355C99.8209 15.8886 99.6932 15.3448 99.4237 14.8679C99.2388 14.5675 98.9829 14.3171 98.6785 14.1386C98.3742 13.9601 98.0306 13.859 97.6779 13.8441C97.3938 13.8371 97.1096 13.8452 96.8264 13.8684C96.6439 13.8684 96.6074 13.9625 96.6074 14.1327C96.6074 16.7981 96.6074 19.4634 96.6074 22.1288L96.6104 22.9491Z" fill="#193B68"/>
<path d="M49.5731 22.9523H46.033V16.4691H39.9229V22.9462H36.3494V22.7245C36.3494 17.256 36.3494 11.7784 36.3494 6.29166C36.3494 6.10634 36.398 6.05773 36.5896 6.0395C37.6085 5.98785 38.6273 5.91798 39.6462 5.85114H39.9108V13.1546H46.0269V6.05773L49.5731 5.83899V22.9523Z" fill="#193B68"/>
<path d="M116.212 17.8482V22.9461H112.65V22.7243C112.65 17.3206 112.65 11.9139 112.65 6.50416C112.65 6.32796 112.705 6.27631 112.872 6.23682C114.709 5.84433 116.589 5.68813 118.465 5.77199C119.785 5.79626 121.077 6.1593 122.215 6.8262C122.887 7.21115 123.463 7.74384 123.898 8.38391C124.333 9.02398 124.617 9.75462 124.728 10.5205C124.997 11.9176 124.766 13.3648 124.077 14.6097C123.192 16.1652 121.814 17.0887 120.123 17.5809C119.051 17.8532 117.941 17.9466 116.838 17.8573L116.297 17.8361L116.212 17.8482ZM116.212 14.2512C116.501 14.2512 116.771 14.2846 117.039 14.2876C117.52 14.2876 118 14.2876 118.478 14.2694C118.957 14.2429 119.426 14.1156 119.852 13.8957C120.148 13.7408 120.408 13.5274 120.618 13.2687C120.828 13.01 120.984 12.7113 121.075 12.3908C121.166 12.0703 121.191 11.7346 121.148 11.4042C121.105 11.0738 120.995 10.7556 120.826 10.4688C120.635 10.2028 120.394 9.97696 120.115 9.80438C119.837 9.63181 119.528 9.51586 119.204 9.46322C118.301 9.28163 117.371 9.28163 116.467 9.46322C116.245 9.49664 116.197 9.57867 116.2 9.79133C116.2 10.9914 116.2 12.1914 116.2 13.3945L116.212 14.2512Z" fill="#193B68"/>
<path d="M142.796 19.4007C144.144 16.5267 145.378 13.6618 145.78 10.5114H149.356C149.241 11.119 149.15 11.6962 149.019 12.2734C148.58 14.1802 147.932 16.0326 147.085 17.7966C146.005 20.069 144.87 22.3172 143.739 24.5623C143.319 25.4191 142.73 26.1826 142.009 26.8074C141.471 27.2685 140.837 27.6049 140.153 27.7924C139.47 27.9799 138.753 28.0139 138.055 27.892C137.156 27.7705 136.288 27.4798 135.497 27.0353C135.327 26.9411 135.175 26.8226 134.998 26.7041L136.893 23.9213C137.033 24.0185 137.161 24.1096 137.291 24.1947C137.641 24.4102 138.034 24.5475 138.441 24.5973C138.849 24.6472 139.263 24.6083 139.655 24.4833C140.004 24.3722 140.3 24.1351 140.485 23.818C140.637 23.5871 140.762 23.338 140.911 23.1041C140.941 23.0592 140.957 23.0063 140.957 22.9522C140.957 22.898 140.941 22.8451 140.911 22.8003C140.089 21.1263 139.247 19.4584 138.478 17.7692C137.621 15.9679 136.965 14.078 136.522 12.1337C136.409 11.605 136.324 11.0734 136.218 10.5265H139.791C140.199 13.6527 141.437 16.5297 142.796 19.4007Z" fill="#193B68"/>
<path d="M61.8327 22.056C61.1388 22.5112 60.3598 22.8213 59.5426 22.9674C58.1578 23.2729 56.7188 23.2301 55.3547 22.8428C54.4934 22.606 53.7046 22.1587 53.0595 21.5414C52.4144 20.924 51.9333 20.156 51.6595 19.3066C50.9326 17.1982 51.0177 15.1201 52.1461 13.1576C53.0129 11.6385 54.3784 10.8183 56.0694 10.5053C57.0399 10.3091 58.0417 10.3278 59.0043 10.56C60.1542 10.8517 61.1637 11.5405 61.854 12.5044C62.9824 14.0234 63.396 16.1713 63.2317 17.9121H55.0414C55.2048 18.5716 55.5998 19.1505 56.1546 19.5435C56.5949 19.8342 57.1109 19.9895 57.6387 19.9901C58.4251 20.0371 59.2108 19.8889 59.9258 19.5587C60.0809 19.4828 60.1509 19.5192 60.2299 19.6529C60.7135 20.3972 61.2093 21.1355 61.6989 21.8767C61.7597 21.9345 61.7932 21.9922 61.8327 22.056ZM59.5031 15.4513C59.4392 14.4427 58.4204 13.592 57.289 13.5981C56.0907 13.5981 55.081 14.4275 55.0293 15.4513H59.5031Z" fill="#193B68"/>
<path d="M83.2224 10.5144V10.7818C83.2224 12.8882 83.2224 14.9915 83.2224 17.0918C83.1961 17.6004 83.3086 18.1065 83.5478 18.5561C83.748 18.9221 84.0504 19.222 84.4181 19.4194C84.7858 19.6169 85.203 19.7032 85.619 19.6681C86.1634 19.6468 86.7017 19.5222 87.2431 19.4493C87.3799 19.4311 87.3769 19.3369 87.3769 19.2367C87.3769 18.546 87.3769 17.8584 87.3769 17.1738C87.3769 15.1049 87.3769 13.036 87.3769 10.9701C87.3769 10.7727 87.4256 10.715 87.6263 10.7058C88.6451 10.6512 89.664 10.5813 90.6676 10.5175H90.9292V10.7484C90.9292 14.4163 90.9292 18.0812 90.9292 21.7431C90.9402 21.8101 90.9253 21.8788 90.8874 21.9352C90.8496 21.9916 90.7916 22.0316 90.7254 22.0469C88.9645 22.7274 87.1397 23.1892 85.2236 23.1132C83.2224 23.0312 81.5527 22.2413 80.3818 20.5613C79.8953 19.8452 79.6435 18.996 79.661 18.1308C79.661 15.7277 79.661 13.3277 79.661 10.9246C79.661 10.8182 79.661 10.7271 79.81 10.718C80.9049 10.6542 82.0028 10.5813 83.0977 10.5144C83.1393 10.5121 83.1809 10.5121 83.2224 10.5144Z" fill="#193B68"/>
<path d="M132.012 14.8284C132.012 13.9838 131.431 13.4066 130.515 13.3367C129.529 13.2603 128.537 13.3675 127.59 13.6526L127.416 13.6982L126.267 11.1857C126.759 11.0187 127.228 10.8303 127.711 10.7057C128.772 10.4084 129.878 10.3105 130.975 10.4171C133.408 10.6936 135.43 12.5893 135.461 15.2294C135.488 17.4654 135.461 19.6984 135.461 21.9344C135.468 21.9812 135.459 22.0291 135.434 22.0697C135.41 22.1103 135.372 22.1409 135.327 22.1561C134.403 22.5944 133.422 22.9012 132.413 23.0675C130.722 23.2772 129.049 23.2468 127.462 22.542C126.981 22.331 126.547 22.0265 126.186 21.6463C125.824 21.266 125.542 20.8176 125.355 20.3272C125.169 19.8368 125.082 19.3142 125.1 18.79C125.119 18.2658 125.241 17.7504 125.461 17.274C125.86 16.4924 126.526 15.8785 127.337 15.5423C128.68 14.9384 130.156 14.6904 131.622 14.8223L131.975 14.8436C131.988 14.8411 132.001 14.8359 132.012 14.8284ZM132.082 20.1328V17.4988C132.04 17.4871 131.997 17.478 131.954 17.4715C131.428 17.4715 130.902 17.4411 130.375 17.4715C129.865 17.4756 129.367 17.6264 128.94 17.9059C128.8 17.9974 128.683 18.1207 128.599 18.2656C128.515 18.4106 128.467 18.5732 128.458 18.7403C128.449 18.9074 128.479 19.0744 128.546 19.2276C128.614 19.3809 128.716 19.5161 128.846 19.6224C129.055 19.7925 129.294 19.9213 129.551 20.0022C130.372 20.2665 131.218 20.2087 132.082 20.1328Z" fill="#193B68"/>
<path d="M71.8235 19.6468V20.0326C71.8235 20.8225 71.8235 21.6154 71.8235 22.4053C71.8235 22.5937 71.7627 22.7091 71.5924 22.7365C71.2206 22.8442 70.84 22.9184 70.4549 22.9582C69.2886 23.0246 68.1276 22.7558 67.1095 22.1835C66.4231 21.826 65.8498 21.285 65.4534 20.6208C65.0571 19.9567 64.8534 19.1956 64.865 18.4224C64.8345 15.916 64.865 13.4097 64.865 10.9033V5.97556L68.4172 5.75378V6.02721C68.4172 9.82274 68.4172 13.6193 68.4172 17.4168C68.4135 17.7012 68.4452 17.9849 68.5115 18.2614C68.6062 18.6463 68.8229 18.9904 69.1292 19.2422C69.4356 19.4941 69.8153 19.6402 70.2116 19.6589C70.7408 19.6954 71.2761 19.6528 71.8235 19.6468Z" fill="#193B68"/>
<path d="M73.8643 10.5114H77.3892V22.9461H73.8643V10.5114Z" fill="#193B68"/>
<path d="M75.6131 9.59089C75.2327 9.59389 74.8599 9.48407 74.5421 9.27533C74.2242 9.06659 73.9755 8.76831 73.8274 8.41828C73.6793 8.06825 73.6385 7.68219 73.7102 7.309C73.7819 6.93581 73.9629 6.59226 74.2302 6.32186C74.4975 6.05146 74.8391 5.86636 75.2117 5.79001C75.5844 5.71366 75.9713 5.74949 76.3236 5.89295C76.6759 6.03642 76.9776 6.28108 77.1906 6.59594C77.4035 6.91081 77.5182 7.28173 77.52 7.66173C77.522 7.91358 77.4742 8.16336 77.3794 8.39673C77.2846 8.63011 77.1446 8.84249 76.9674 9.02171C76.7903 9.20093 76.5795 9.34346 76.3471 9.44113C76.1146 9.5388 75.8652 9.58969 75.6131 9.59089Z" fill="#193B68"/>
<path d="M5.20179 26.4156L5.16113 26.3898L5.20179 26.4156Z" fill="#193B68"/>
<path d="M4.09937 4.7308C4.12082 4.70443 4.14427 4.67976 4.1695 4.65698C4.14427 4.67976 4.12082 4.70443 4.09937 4.7308Z" fill="#193B68"/>
<path d="M23.7781 27.3286C23.7155 27.3765 23.6528 27.4244 23.5864 27.4687C23.6528 27.4244 23.7155 27.3765 23.7781 27.3286Z" fill="#193B68"/>
<path d="M7.56104 28.0945L7.6017 28.1167L7.56473 28.0945H7.56104Z" fill="#193B68"/>
<path d="M19.299 29.4971L19.1847 29.5302L19.299 29.4971Z" fill="#193B68"/>
<path d="M30.1485 14.8331C30.1126 11.6786 29.0804 8.61601 27.1992 6.08179C25.7397 8.75831 24.4362 11.5168 23.2952 14.3434C25.5907 14.2533 27.8892 14.4175 30.1485 14.8331Z" fill="#193B68"/>
<path d="M7.19968 21.9829C5.95609 22.7192 4.68054 23.5685 3.37305 24.5306C3.93181 25.2109 4.54854 25.8416 5.21632 26.4156C5.67714 25.8597 6.78679 23.312 6.84946 23.1021C6.96743 22.745 7.0854 22.3658 7.19968 21.9829Z" fill="#193B68"/>
<path d="M12.5342 13.4746C12.2982 14.5791 12.0918 15.713 11.8669 16.8286C14.6357 15.7004 17.539 14.9344 20.5045 14.5496C21.4187 12.5026 24.2832 6.85495 25.6067 4.27042C23.8198 2.52974 21.6274 1.26032 19.2269 0.576485C16.8265 -0.107345 14.2934 -0.184097 11.8558 0.353142C13.9166 4.20784 13.4005 9.37688 12.5342 13.4746Z" fill="#193B68"/>
<path d="M8.23195 17.7012C8.89184 14.3877 9.50749 10.9195 9.3969 7.51401C9.35785 5.50278 8.94404 3.5164 8.17665 1.65649C6.36033 2.58927 4.75286 3.88109 3.45193 5.45348C2.15099 7.02587 1.18375 8.84598 0.608961 10.8032C0.0341765 12.7605 -0.136146 14.814 0.108342 16.839C0.35283 18.8641 1.00702 20.8183 2.03117 22.583C3.90901 21.0833 5.92044 19.7585 8.04025 18.6252C8.11029 18.3197 8.16928 18.0251 8.23195 17.7012Z" fill="#193B68"/>
<path d="M22.3478 16.8727C21.6081 18.9401 21.0904 21.0801 20.8031 23.2567C20.475 26.1578 20.8768 27.8625 21.2566 28.7792C23.4956 27.7731 25.4551 26.2365 26.9648 24.3028C28.4745 22.3691 29.4889 20.0966 29.9199 17.6827C27.4653 16.9594 24.9001 16.685 22.3478 16.8727Z" fill="#193B68"/>
<path d="M19.5828 17.1893C16.6689 17.697 13.8376 18.5974 11.1664 19.8659C11.1643 19.8855 11.1643 19.9052 11.1664 19.9248C10.3927 22.8134 9.18182 25.5671 7.57568 28.0907C9.33622 29.1033 11.2838 29.7497 13.301 29.9907C15.3183 30.2318 17.3636 30.0626 19.3137 29.4934C18.6129 27.8974 18.2502 26.1739 18.2482 24.4311C18.2335 22.3915 18.9155 19.4204 19.5828 17.1893Z" fill="#193B68"/>
<path fill-rule="evenodd" clip-rule="evenodd" d="M30.1462 14.7916L30.0453 16.7082C27.7395 16.1925 22.343 15.2642 18.3783 16.0893C13.4223 17.1207 7.6404 19.9054 5.47218 21.4524C4.08515 22.4421 3.04582 23.058 2.49145 23.353C2.25441 22.9949 2.03227 22.6262 1.82593 22.2476C4.51567 20.2096 10.8494 16.2546 15.4977 14.7068C17.3066 14.1045 19.5253 13.6056 21.6968 13.3799C25.324 13.0028 28.8194 13.1653 30.0528 13.3518C30.1063 13.8254 30.1378 14.3057 30.1462 14.7916Z" fill="url(#paint0_linear_980_2294)"/>
<path d="M30.1485 14.7486C27.8905 14.3331 25.5894 14.2534 23.2951 14.3434C24.4343 11.5184 25.7354 8.76122 27.1918 6.08549C26.7121 5.43978 26.1807 4.834 25.6029 4.27411C24.2794 6.86232 21.4187 12.5026 20.5081 14.5496C17.5426 14.9344 14.6394 15.7004 11.8705 16.8286C12.0954 15.7241 12.3018 14.5938 12.5378 13.4746C13.4004 9.38057 13.9166 4.21153 11.8558 0.353149C10.5748 0.632531 9.33562 1.07682 8.16923 1.67486C8.93662 3.53477 9.35043 5.52115 9.38948 7.53238C9.50007 10.9379 8.88442 14.3913 8.22453 17.7195C8.16186 18.0288 8.0955 18.338 8.03283 18.6436C5.91683 19.7724 3.90799 21.0909 2.03113 22.583C2.42676 23.2662 2.87543 23.9174 3.37303 24.5306C4.68053 23.5734 5.95607 22.7241 7.19967 21.9829C7.08538 22.351 6.96741 22.745 6.83101 23.1205C6.76834 23.312 5.65869 25.856 5.20156 26.434C5.93144 27.069 6.72165 27.6312 7.56095 28.1128C9.163 25.5876 10.3724 22.8343 11.148 19.9469C11.1459 19.9273 11.1459 19.9076 11.148 19.888C13.819 18.6183 16.6503 17.7166 19.5643 17.2078C18.8971 19.4389 18.2151 22.41 18.2151 24.4533C18.2178 26.1944 18.5792 27.9163 19.2768 29.5119C19.9471 29.3129 20.6025 29.0668 21.238 28.7755C20.8694 27.8625 20.4565 26.1579 20.7846 23.2531C21.0718 21.0765 21.5896 18.9365 22.3293 16.8691C24.8801 16.6806 27.4441 16.9538 29.8977 17.6753C30.0518 16.8051 30.148 15.9418 30.1485 15.058C30.1485 14.9549 30.1523 14.8704 30.1485 14.7486Z" fill="white"/>
<defs>
<linearGradient id="paint0_linear_980_2294" x1="17.2412" y1="11.4577" x2="5.54165" y2="24.2305" gradientUnits="userSpaceOnUse">
<stop stop-color="#FBAB34"/>
<stop offset="1" stop-color="#FBA734" stop-opacity="0"/>
</linearGradient>
</defs>
</svg>

