<svg width="23" height="23" viewBox="0 0 23 23" fill="none" xmlns="http://www.w3.org/2000/svg">
<path d="M14.2121 10.8195L10.1488 6.75613C10.0597 6.66631 9.9537 6.59501 9.83692 6.54636C9.72014 6.49771 9.59488 6.47266 9.46837 6.47266C9.34186 6.47266 9.2166 6.49771 9.09982 6.54636C8.98304 6.59501 8.87704 6.66631 8.78795 6.75613C8.60946 6.93569 8.50928 7.17858 8.50928 7.43175C8.50928 7.68493 8.60946 7.92782 8.78795 8.10738L12.1805 11.4999L8.78795 14.8924C8.60946 15.0719 8.50928 15.3148 8.50928 15.568C8.50928 15.8212 8.60946 16.0641 8.78795 16.2436C8.8775 16.3324 8.9837 16.4027 9.10046 16.4504C9.21722 16.4981 9.34225 16.5223 9.46837 16.5215C9.59449 16.5223 9.71952 16.4981 9.83628 16.4504C9.95304 16.4027 10.0592 16.3324 10.1488 16.2436L14.2121 12.1803C14.3019 12.0912 14.3732 11.9852 14.4219 11.8684C14.4705 11.7517 14.4956 11.6264 14.4956 11.4999C14.4956 11.3734 14.4705 11.2481 14.4219 11.1313C14.3732 11.0145 14.3019 10.9086 14.2121 10.8195Z" fill="#626674"/>
</svg>
