<svg width="36" height="36" viewBox="0 0 36 36" fill="none" xmlns="http://www.w3.org/2000/svg">
<rect width="36" height="36" rx="8" fill="#F3F5F6"/>
<path d="M15.1413 11.1372C15.4379 11.1372 15.7111 11.298 15.8551 11.5573L16.8536 13.356C16.9843 13.5915 16.9905 13.8764 16.87 14.1173L15.908 16.0413C15.908 16.0413 16.1868 17.4745 17.3535 18.6412C18.5202 19.8079 19.9487 20.0818 19.9487 20.0818L21.8723 19.1201C22.1134 18.9995 22.3984 19.0057 22.634 19.1367L24.4378 20.1396C24.6969 20.2836 24.8575 20.5567 24.8575 20.853V22.9238C24.8575 23.9784 23.878 24.7401 22.8788 24.4029C20.8265 23.7105 17.6409 22.392 15.6218 20.3729C13.6027 18.3538 12.2843 15.1682 11.5918 13.116C11.2546 12.1167 12.0163 11.1372 13.0709 11.1372H15.1413Z" stroke="#193B68" stroke-width="1.4" stroke-linejoin="round"/>
</svg>
