<svg width="23" height="23" viewBox="0 0 23 23" fill="none" xmlns="http://www.w3.org/2000/svg">
<path d="M8.78788 10.8195L12.8512 6.75613C12.9403 6.66631 13.0463 6.59501 13.1631 6.54636C13.2799 6.49771 13.4051 6.47266 13.5316 6.47266C13.6581 6.47266 13.7834 6.49771 13.9002 6.54636C14.017 6.59501 14.123 6.66631 14.212 6.75613C14.3905 6.93569 14.4907 7.17858 14.4907 7.43175C14.4907 7.68493 14.3905 7.92782 14.212 8.10738L10.8195 11.4999L14.212 14.8924C14.3905 15.0719 14.4907 15.3148 14.4907 15.568C14.4907 15.8212 14.3905 16.0641 14.212 16.2436C14.1225 16.3324 14.0163 16.4027 13.8995 16.4504C13.7828 16.4981 13.6578 16.5223 13.5316 16.5215C13.4055 16.5223 13.2805 16.4981 13.1637 16.4504C13.047 16.4027 12.9408 16.3324 12.8512 16.2436L8.78788 12.1803C8.69806 12.0912 8.62676 11.9852 8.57811 11.8684C8.52946 11.7517 8.50441 11.6264 8.50441 11.4999C8.50441 11.3734 8.52946 11.2481 8.57811 11.1313C8.62676 11.0145 8.69806 10.9086 8.78788 10.8195Z" fill="#626674"/>
</svg>
