<svg width="18" height="19" viewBox="0 0 18 19" fill="none" xmlns="http://www.w3.org/2000/svg">
<path d="M14.9249 9.99504C14.8047 9.85818 14.7384 9.68223 14.7384 9.50004C14.7384 9.31786 14.8047 9.14191 14.9249 9.00504L15.8849 7.92504C15.9907 7.80705 16.0564 7.65857 16.0726 7.50092C16.0887 7.34328 16.0546 7.18456 15.9749 7.04754L14.4749 4.45254C14.3961 4.31568 14.2761 4.2072 14.132 4.14256C13.9879 4.07792 13.8271 4.06041 13.6724 4.09254L12.2624 4.37754C12.083 4.41461 11.8962 4.38474 11.7373 4.29354C11.5784 4.20235 11.4584 4.05616 11.3999 3.88254L10.9424 2.51004C10.8921 2.36108 10.7962 2.23169 10.6684 2.14017C10.5405 2.04866 10.3872 1.99964 10.2299 2.00004H7.22992C7.06637 1.99151 6.90452 2.03674 6.7691 2.12883C6.63367 2.22092 6.53211 2.35481 6.47992 2.51004L6.05992 3.88254C6.00142 4.05616 5.8814 4.20235 5.72251 4.29354C5.56361 4.38474 5.37683 4.41461 5.19742 4.37754L3.74992 4.09254C3.60334 4.07183 3.4539 4.09496 3.32043 4.15902C3.18697 4.22309 3.07545 4.32521 2.99992 4.45254L1.49992 7.04754C1.41829 7.18303 1.38159 7.34086 1.39506 7.49846C1.40853 7.65606 1.47148 7.80537 1.57492 7.92504L2.52742 9.00504C2.64766 9.14191 2.71397 9.31786 2.71397 9.50004C2.71397 9.68223 2.64766 9.85818 2.52742 9.99504L1.57492 11.075C1.47148 11.1947 1.40853 11.344 1.39506 11.5016C1.38159 11.6592 1.41829 11.8171 1.49992 11.9525L2.99992 14.5475C3.07875 14.6844 3.19876 14.7929 3.34286 14.8575C3.48696 14.9222 3.64779 14.9397 3.80242 14.9075L5.21242 14.6225C5.39183 14.5855 5.57861 14.6154 5.73751 14.7065C5.8964 14.7977 6.01642 14.9439 6.07492 15.1175L6.53242 16.49C6.58461 16.6453 6.68617 16.7792 6.8216 16.8713C6.95702 16.9633 7.11887 17.0086 7.28242 17H10.2824C10.4397 17.0005 10.593 16.9514 10.7209 16.8599C10.8487 16.7684 10.9446 16.639 10.9949 16.49L11.4524 15.1175C11.5109 14.9439 11.6309 14.7977 11.7898 14.7065C11.9487 14.6154 12.1355 14.5855 12.3149 14.6225L13.7249 14.9075C13.8796 14.9397 14.0404 14.9222 14.1845 14.8575C14.3286 14.7929 14.4486 14.6844 14.5274 14.5475L16.0274 11.9525C16.1071 11.8155 16.1412 11.6568 16.1251 11.4992C16.1089 11.3415 16.0432 11.193 15.9374 11.075L14.9249 9.99504ZM13.8074 11L14.4074 11.675L13.4474 13.34L12.5624 13.16C12.0223 13.0496 11.4603 13.1414 10.9834 13.4179C10.5064 13.6944 10.1475 14.1364 9.97492 14.66L9.68992 15.5H7.76992L7.49992 14.645C7.32731 14.1214 6.96846 13.6794 6.49148 13.4029C6.01449 13.1264 5.45259 13.0346 4.91242 13.145L4.02742 13.325L3.05242 11.6675L3.65242 10.9925C4.02139 10.58 4.22537 10.046 4.22537 9.49254C4.22537 8.93909 4.02139 8.40506 3.65242 7.99254L3.05242 7.31754L4.01242 5.66754L4.89742 5.84754C5.43759 5.95796 5.99949 5.8662 6.47648 5.58969C6.95346 5.31318 7.31231 4.87116 7.48492 4.34754L7.76992 3.50004H9.68992L9.97492 4.35504C10.1475 4.87866 10.5064 5.32068 10.9834 5.59719C11.4603 5.8737 12.0223 5.96546 12.5624 5.85504L13.4474 5.67504L14.4074 7.34004L13.8074 8.01504C13.4426 8.42661 13.2412 8.95756 13.2412 9.50754C13.2412 10.0575 13.4426 10.5885 13.8074 11V11ZM8.72992 6.50004C8.13658 6.50004 7.55656 6.67599 7.06321 7.00564C6.56986 7.33528 6.18535 7.80381 5.95828 8.35199C5.73122 8.90017 5.67181 9.50337 5.78757 10.0853C5.90332 10.6673 6.18904 11.2018 6.6086 11.6214C7.02816 12.0409 7.56271 12.3266 8.14465 12.4424C8.72659 12.5582 9.32979 12.4987 9.87797 12.2717C10.4261 12.0446 10.8947 11.6601 11.2243 11.1668C11.554 10.6734 11.7299 10.0934 11.7299 9.50004C11.7299 8.70439 11.4139 7.94133 10.8512 7.37872C10.2886 6.81611 9.52557 6.50004 8.72992 6.50004V6.50004ZM8.72992 11C8.43325 11 8.14324 10.9121 7.89657 10.7472C7.64989 10.5824 7.45763 10.3482 7.3441 10.0741C7.23057 9.79998 7.20087 9.49838 7.25874 9.20741C7.31662 8.91644 7.45948 8.64916 7.66926 8.43938C7.87904 8.22961 8.14631 8.08674 8.43729 8.02887C8.72826 7.97099 9.02986 8.00069 9.30395 8.11422C9.57804 8.22776 9.8123 8.42001 9.97713 8.66669C10.1419 8.91336 10.2299 9.20337 10.2299 9.50004C10.2299 9.89787 10.0719 10.2794 9.79058 10.5607C9.50928 10.842 9.12775 11 8.72992 11Z" fill="#1E87F0"/>
</svg>
