<svg width="20" height="20" viewBox="0 0 20 20" fill="none" xmlns="http://www.w3.org/2000/svg">
<path fill-rule="evenodd" clip-rule="evenodd" d="M6.2885 2.73161C6.42699 2.83158 6.65033 3.06121 6.65033 3.06121C7.51734 3.87382 8.82323 5.89495 9.2426 6.92036C9.25138 6.92036 9.50007 7.53007 9.50982 7.82007V7.85868C9.50982 8.30309 9.26113 8.7188 8.86127 8.9316C8.69643 9.01933 8.29549 9.10093 8.10205 9.14029C8.03798 9.15333 7.99668 9.16173 7.99425 9.1642C7.42274 9.2513 6.54597 9.30871 5.58338 9.30871C4.573 9.30871 3.65819 9.2513 3.09546 9.1444C3.08571 9.1444 2.57174 9.0385 2.40009 8.9702C2.15237 8.86429 1.94269 8.6703 1.80908 8.42879C1.7135 8.23578 1.66669 8.03189 1.66669 7.82007C1.67546 7.59737 1.81883 7.18167 1.88515 7.01736C2.30451 5.93355 3.67672 3.86392 4.51546 3.0711C4.60258 2.98268 4.70173 2.89005 4.77073 2.8256C4.80754 2.79121 4.83577 2.76483 4.849 2.7514C5.05868 2.5871 5.31615 2.5 5.59313 2.5C5.83988 2.5 6.0876 2.5772 6.2885 2.73161ZM15.1905 8.46815C15.1905 8.90465 14.8424 9.25801 14.4123 9.25801C13.9822 9.25801 13.634 8.90465 13.634 8.46815L13.4194 4.65246C13.4194 4.09619 13.8642 3.64583 14.4123 3.64583C14.9604 3.64583 15.4041 4.09619 15.4041 4.65246L15.1905 8.46815ZM17.5999 11.0297C17.8477 11.1366 18.0574 11.3296 18.191 11.5711C18.2865 11.7641 18.3334 11.968 18.3334 12.1808C18.3246 12.4025 18.1812 12.8192 18.1139 12.9835C17.6955 14.0664 16.3223 16.1361 15.4846 16.9299C15.3989 17.0162 15.3017 17.1069 15.2328 17.1712L15.2328 17.1712L15.2328 17.1712C15.1943 17.2071 15.1647 17.2347 15.151 17.2486C14.9404 17.4129 14.6839 17.5 14.4079 17.5C14.1592 17.5 13.9115 17.4228 13.7115 17.2674C13.5731 17.1684 13.3497 16.9388 13.3497 16.9388C12.4817 16.1271 11.1768 14.105 10.7574 13.0795C10.7477 13.0795 10.5 12.4708 10.4902 12.1808V12.1422C10.4902 11.6968 10.7379 11.2811 11.1388 11.0683C11.3033 10.9814 11.7029 10.8996 11.8968 10.8599L11.8968 10.8599C11.9616 10.8467 12.0033 10.8381 12.0058 10.8357C12.5773 10.7486 13.4541 10.6911 14.4167 10.6911C15.427 10.6911 16.3418 10.7486 16.9046 10.8555C16.9134 10.8555 17.4283 10.9614 17.5999 11.0297ZM5.58796 10.7421C5.15787 10.7421 4.8097 11.0955 4.8097 11.532L4.59514 15.3476C4.59514 15.9038 5.03986 16.3542 5.58796 16.3542C6.13607 16.3542 6.57981 15.9038 6.57981 15.3476L6.36623 11.532C6.36623 11.0955 6.01806 10.7421 5.58796 10.7421Z" fill="#193B68"/>
</svg>
